# xmcd
#
# Track frame offsets:
#	150
#	18036
#	40762
#	62708
#	82862
#	103594
#	125963
#	148071
#	168782
#	188079
#	214970
#
# Disc length: 3092 seconds
# Revision: 0
# Processed by: cddbd v1.5.2PL0 Copyright (c) Steve Scherf et al.
# Submitted via: dBpowerAMP V12.0
#
DISCID=910c120b
DTITLE=The Carter Brothers - The Road To Roosky
DYEAR=2011
DGENRE=Country
TTITLE0=Woman at the Well
TTITLE1=Road to Roosky
TTITLE2=She's a Hurricane
TTITLE3=Sin
TTITLE4=Soul of a Man
TTITLE5=Jerusalem Moan
TTITLE6=King of the Hill
TTITLE7=Deep Ellum Blues
TTITLE8=What Does the Deep Sea Say
TTITLE9=Red Rooster
TTITLE10=Let Everybody Dance
EXTD=
EXTT0=
EXTT1=
EXTT2=
EXTT3=
EXTT4=
EXTT5=
EXTT6=
EXTT7=
EXTT8=
EXTT9=
EXTT10=
PLAYORDER=
